<svg id="Capa_1" enable-background="new 0 0 512 512" height="512" viewBox="0 0 512 512" width="512" xmlns="http://www.w3.org/2000/svg"><g><path d="m383.354 308.492-115-166.999c-2.8-4.065-7.419-6.493-12.354-6.493-4.936 0-9.555 2.428-12.354 6.493l-114.998 166.999c-2.782 4.039-3.413 9.182-1.691 13.774l37.398 99.734h-23.355c-8.284 0-15 6.716-15 15v60c0 8.284 6.716 15 15 15h230c8.284 0 15-6.716 15-15v-60c0-8.284-6.716-15-15-15h-23.354l37.399-99.734c1.722-4.592 1.091-9.735-1.691-13.774zm-127.354-2.492c8.272 0 15 6.729 15 15s-6.728 15-15 15c-8.271 0-15-6.729-15-15s6.729-15 15-15zm100 176h-200v-30h200zm-40.395-60h-119.21l-38.601-102.94 83.206-120.829v80.349c-17.458 6.192-30 22.865-30 42.42 0 24.814 20.187 45 45 45 24.814 0 45-20.186 45-45 0-19.555-12.541-36.228-30-42.42v-80.351l83.207 120.831z"/><path d="m497 223.5h-16.422c-3.518-45.288-22.879-88.358-55.421-122.624-15.36-16.174-33.2-29.917-52.786-40.876h52.209c6.192 17.459 22.865 30 42.42 30 24.814 0 45-20.187 45-45s-20.186-45-45-45c-19.555 0-36.228 12.542-42.42 30h-123.58v-15c0-8.284-6.716-15-15-15h-60c-8.284 0-15 6.716-15 15v15h-123.58c-6.192-17.458-22.865-30-42.42-30-24.813 0-45 20.187-45 45s20.187 45 45 45c19.555 0 36.228-12.541 42.42-30h52.209c-19.586 10.959-37.426 24.702-52.787 40.876-32.542 34.266-51.904 77.336-55.42 122.624h-16.422c-8.284 0-15 6.716-15 15v60c0 8.284 6.716 15 15 15h60c8.284 0 15-6.716 15-15v-60c0-8.284-6.716-15-15-15h-13.46c7.115-76.432 68.024-141.058 149.46-158.705v10.205c0 8.284 6.716 15 15 15h60c8.284 0 15-6.716 15-15v-10.205c81.436 17.647 142.345 82.274 149.459 158.705h-13.459c-8.284 0-15 6.716-15 15v60c0 8.284 6.716 15 15 15h60c8.284 0 15-6.716 15-15v-60c0-8.284-6.716-15-15-15zm-437 60h-30v-30h30zm407-253.5c8.272 0 15 6.729 15 15s-6.728 15-15 15-15-6.729-15-15 6.728-15 15-15zm-422 30c-8.271 0-15-6.729-15-15s6.729-15 15-15 15 6.729 15 15-6.729 15-15 15zm226 0h-30v-30h30zm211 223.5h-30v-30h30z"/></g></svg>