<?xml version="1.0" encoding="utf-8"?>
<!-- Generator: Adobe Illustrator 15.1.0, SVG Export Plug-In . SVG Version: 6.00 Build 0)  -->
<!DOCTYPE svg PUBLIC "-//W3C//DTD SVG 1.1//EN" "http://www.w3.org/Graphics/SVG/1.1/DTD/svg11.dtd">
<svg version="1.1" id="圖層_1" xmlns="http://www.w3.org/2000/svg" xmlns:xlink="http://www.w3.org/1999/xlink" x="0px" y="0px"
	 width="55px" height="55px" viewBox="0 0 55 55" enable-background="new 0 0 55 55" xml:space="preserve">
<g>
	<polygon fill="#FFBD17" points="46.5,48 54.5,48 54.5,37 54.5,29 54.5,23 46.5,23 46.5,29 0.5,29 0.5,30 0.5,37 0.5,48 8.5,48 
		8.5,37 46.5,37 	"/>
	<polygon fill="#FFBD17" points="54.5,19 54.5,17 8.5,17 8.5,15 54.5,15 54.5,7 0.5,7 0.5,8 0.5,15 0.5,17 0.5,19 0.5,26 8.5,26 
		8.5,19 	"/>
</g>
</svg>
